<svg width="18" height="19" viewBox="0 0 18 19" fill="none" xmlns="http://www.w3.org/2000/svg">
<g clip-path="url(#clip0_3626_143)">
<path d="M13.1275 0H4.87243C2.18573 0 0 2.30716 0 5.14312V13.857C0 16.6928 2.18573 19 4.87243 19H13.1277C15.8142 19 18 16.6928 18 13.857V5.14312C18 2.30716 15.8142 0 13.1275 0V0ZM8.99998 14.6951C6.28609 14.6951 4.07825 12.3646 4.07825 9.49998C4.07825 6.63532 6.28609 4.30482 8.99998 4.30482C11.7139 4.30482 13.9217 6.63532 13.9217 9.49998C13.9217 12.3646 11.7139 14.6951 8.99998 14.6951ZM14.0394 5.53001C13.2374 5.53001 12.5851 4.84146 12.5851 3.9949C12.5851 3.14835 13.2374 2.45965 14.0394 2.45965C14.8414 2.45965 15.4939 3.14835 15.4939 3.9949C15.4939 4.84146 14.8414 5.53001 14.0394 5.53001Z" fill="#4C858B"/>
<path d="M8.99998 5.4187C6.86808 5.4187 5.13348 7.24952 5.13348 9.5C5.13348 11.7503 6.86808 13.5813 8.99998 13.5813C11.132 13.5813 12.8665 11.7503 12.8665 9.5C12.8665 7.24952 11.132 5.4187 8.99998 5.4187Z" fill="#4C858B"/>
<path d="M14.0394 3.57373C13.8194 3.57373 13.6404 3.76276 13.6404 3.99498C13.6404 4.2272 13.8194 4.41623 14.0394 4.41623C14.2596 4.41623 14.4386 4.22735 14.4386 3.99498C14.4386 3.76261 14.2596 3.57373 14.0394 3.57373Z" fill="#4C858B"/>
</g>
<defs>
<clipPath id="clip0_3626_143">
<rect width="18" height="19" fill="white"/>
</clipPath>
</defs>
</svg>
