<svg width="32" height="128" viewBox="0 0 32 128" fill="none" xmlns="http://www.w3.org/2000/svg">
<path d="M2.12012 81.5417C3.29101 81.5417 4.24021 80.5925 4.24021 79.4216C4.24021 78.2507 3.29101 77.3015 2.12012 77.3015C0.949234 77.3015 6.10352e-05 78.2507 6.10352e-05 79.4216C6.10352e-05 80.5925 0.949234 81.5417 2.12012 81.5417Z" fill="black"/>
<path d="M15.5745 81.5417C16.7454 81.5417 17.6946 80.5925 17.6946 79.4216C17.6946 78.2507 16.7454 77.3015 15.5745 77.3015C14.4036 77.3015 13.4544 78.2507 13.4544 79.4216C13.4544 80.5925 14.4036 81.5417 15.5745 81.5417Z" fill="black"/>
<path d="M29.0288 81.5417C30.1997 81.5417 31.1489 80.5925 31.1489 79.4216C31.1489 78.2507 30.1997 77.3015 29.0288 77.3015C27.8579 77.3015 26.9088 78.2507 26.9088 79.4216C26.9088 80.5925 27.8579 81.5417 29.0288 81.5417Z" fill="black"/>
<path d="M2.12012 65.6818C3.29101 65.6818 4.24021 64.7326 4.24021 63.5617C4.24021 62.3908 3.29101 61.4417 2.12012 61.4417C0.949234 61.4417 6.10352e-05 62.3908 6.10352e-05 63.5617C6.10352e-05 64.7326 0.949234 65.6818 2.12012 65.6818Z" fill="black"/>
<path d="M15.5745 65.6818C16.7454 65.6818 17.6946 64.7326 17.6946 63.5617C17.6946 62.3908 16.7454 61.4417 15.5745 61.4417C14.4036 61.4417 13.4544 62.3908 13.4544 63.5617C13.4544 64.7326 14.4036 65.6818 15.5745 65.6818Z" fill="black"/>
<path d="M29.0288 65.6818C30.1997 65.6818 31.1489 64.7326 31.1489 63.5617C31.1489 62.3908 30.1997 61.4417 29.0288 61.4417C27.8579 61.4417 26.9088 62.3908 26.9088 63.5617C26.9088 64.7326 27.8579 65.6818 29.0288 65.6818Z" fill="black"/>
<path d="M2.12012 51.8197C3.29101 51.8197 4.24021 50.8706 4.24021 49.6997C4.24021 48.5288 3.29101 47.5796 2.12012 47.5796C0.949234 47.5796 6.10352e-05 48.5288 6.10352e-05 49.6997C6.10352e-05 50.8706 0.949234 51.8197 2.12012 51.8197Z" fill="black"/>
<path d="M15.5745 51.8197C16.7454 51.8197 17.6946 50.8706 17.6946 49.6997C17.6946 48.5288 16.7454 47.5796 15.5745 47.5796C14.4036 47.5796 13.4544 48.5288 13.4544 49.6997C13.4544 50.8706 14.4036 51.8197 15.5745 51.8197Z" fill="black"/>
<path d="M29.0288 51.8197C30.1997 51.8197 31.1489 50.8706 31.1489 49.6997C31.1489 48.5288 30.1997 47.5796 29.0288 47.5796C27.8579 47.5796 26.9088 48.5288 26.9088 49.6997C26.9088 50.8706 27.8579 51.8197 29.0288 51.8197Z" fill="black"/>
<path d="M2.12006 127.542C3.29095 127.542 4.24015 126.592 4.24015 125.422C4.24015 124.251 3.29095 123.302 2.12006 123.302C0.949173 123.302 0 124.251 0 125.422C0 126.592 0.949173 127.542 2.12006 127.542Z" fill="black"/>
<path d="M15.5744 127.542C16.7453 127.542 17.6945 126.592 17.6945 125.422C17.6945 124.251 16.7453 123.302 15.5744 123.302C14.4035 123.302 13.4543 124.251 13.4543 125.422C13.4543 126.592 14.4035 127.542 15.5744 127.542Z" fill="black"/>
<path d="M29.0288 127.542C30.1996 127.542 31.1488 126.592 31.1488 125.422C31.1488 124.251 30.1996 123.302 29.0288 123.302C27.8579 123.302 26.9087 124.251 26.9087 125.422C26.9087 126.592 27.8579 127.542 29.0288 127.542Z" fill="black"/>
<path d="M2.12006 111.682C3.29095 111.682 4.24015 110.733 4.24015 109.562C4.24015 108.391 3.29095 107.442 2.12006 107.442C0.949173 107.442 0 108.391 0 109.562C0 110.733 0.949173 111.682 2.12006 111.682Z" fill="black"/>
<path d="M15.5744 111.682C16.7453 111.682 17.6945 110.733 17.6945 109.562C17.6945 108.391 16.7453 107.442 15.5744 107.442C14.4035 107.442 13.4543 108.391 13.4543 109.562C13.4543 110.733 14.4035 111.682 15.5744 111.682Z" fill="black"/>
<path d="M29.0288 111.682C30.1996 111.682 31.1488 110.733 31.1488 109.562C31.1488 108.391 30.1996 107.442 29.0288 107.442C27.8579 107.442 26.9087 108.391 26.9087 109.562C26.9087 110.733 27.8579 111.682 29.0288 111.682Z" fill="black"/>
<path d="M2.12006 97.8197C3.29095 97.8197 4.24015 96.8706 4.24015 95.6997C4.24015 94.5288 3.29095 93.5796 2.12006 93.5796C0.949173 93.5796 0 94.5288 0 95.6997C0 96.8706 0.949173 97.8197 2.12006 97.8197Z" fill="black"/>
<path d="M15.5744 97.8197C16.7453 97.8197 17.6945 96.8706 17.6945 95.6997C17.6945 94.5288 16.7453 93.5796 15.5744 93.5796C14.4035 93.5796 13.4543 94.5288 13.4543 95.6997C13.4543 96.8706 14.4035 97.8197 15.5744 97.8197Z" fill="black"/>
<path d="M29.0288 97.8197C30.1996 97.8197 31.1488 96.8706 31.1488 95.6997C31.1488 94.5288 30.1996 93.5796 29.0288 93.5796C27.8579 93.5796 26.9087 94.5288 26.9087 95.6997C26.9087 96.8706 27.8579 97.8197 29.0288 97.8197Z" fill="black"/>
<path d="M2.12012 35.96C3.29101 35.96 4.24021 35.0108 4.24021 33.8399C4.24021 32.669 3.29101 31.7198 2.12012 31.7198C0.949234 31.7198 6.10352e-05 32.669 6.10352e-05 33.8399C6.10352e-05 35.0108 0.949234 35.96 2.12012 35.96Z" fill="black"/>
<path d="M15.5745 35.96C16.7454 35.96 17.6946 35.0108 17.6946 33.8399C17.6946 32.669 16.7454 31.7198 15.5745 31.7198C14.4036 31.7198 13.4544 32.669 13.4544 33.8399C13.4544 35.0108 14.4036 35.96 15.5745 35.96Z" fill="black"/>
<path d="M29.0288 35.96C30.1997 35.96 31.1489 35.0108 31.1489 33.8399C31.1489 32.669 30.1997 31.7198 29.0288 31.7198C27.8579 31.7198 26.9088 32.669 26.9088 33.8399C26.9088 35.0108 27.8579 35.96 29.0288 35.96Z" fill="black"/>
<path d="M2.12012 20.1C3.29101 20.1 4.24021 19.1508 4.24021 17.9799C4.24021 16.8091 3.29101 15.8599 2.12012 15.8599C0.949234 15.8599 6.10352e-05 16.8091 6.10352e-05 17.9799C6.10352e-05 19.1508 0.949234 20.1 2.12012 20.1Z" fill="black"/>
<path d="M15.5745 20.1C16.7454 20.1 17.6946 19.1508 17.6946 17.9799C17.6946 16.8091 16.7454 15.8599 15.5745 15.8599C14.4036 15.8599 13.4544 16.8091 13.4544 17.9799C13.4544 19.1508 14.4036 20.1 15.5745 20.1Z" fill="black"/>
<path d="M29.0288 20.1C30.1997 20.1 31.1489 19.1508 31.1489 17.9799C31.1489 16.8091 30.1997 15.8599 29.0288 15.8599C27.8579 15.8599 26.9088 16.8091 26.9088 17.9799C26.9088 19.1508 27.8579 20.1 29.0288 20.1Z" fill="black"/>
<path d="M2.12012 4.24028C3.29101 4.24028 4.24021 3.29109 4.24021 2.1202C4.24021 0.949313 3.29101 0.00012207 2.12012 0.00012207C0.949234 0.00012207 6.10352e-05 0.949313 6.10352e-05 2.1202C6.10352e-05 3.29109 0.949234 4.24028 2.12012 4.24028Z" fill="black"/>
<path d="M15.5745 4.24022C16.7454 4.24022 17.6946 3.29103 17.6946 2.12014C17.6946 0.949252 16.7454 6.10352e-05 15.5745 6.10352e-05C14.4036 6.10352e-05 13.4544 0.949252 13.4544 2.12014C13.4544 3.29103 14.4036 4.24022 15.5745 4.24022Z" fill="black"/>
<path d="M29.0288 4.24022C30.1997 4.24022 31.1489 3.29103 31.1489 2.12014C31.1489 0.949252 30.1997 6.10352e-05 29.0288 6.10352e-05C27.8579 6.10352e-05 26.9088 0.949252 26.9088 2.12014C26.9088 3.29103 27.8579 4.24022 29.0288 4.24022Z" fill="black"/>
</svg>
