<svg width="32" height="128" viewBox="0 0 32 128" fill="none" xmlns="http://www.w3.org/2000/svg">
<path d="M2.15818 81.5417C3.32907 81.5417 4.27826 80.5925 4.27826 79.4216C4.27826 78.2507 3.32907 77.3015 2.15818 77.3015C0.987289 77.3015 0.0381165 78.2507 0.0381165 79.4216C0.0381165 80.5925 0.987289 81.5417 2.15818 81.5417Z" fill="black"/>
<path d="M15.6126 81.5417C16.7834 81.5417 17.7326 80.5925 17.7326 79.4216C17.7326 78.2507 16.7834 77.3015 15.6126 77.3015C14.4417 77.3015 13.4925 78.2507 13.4925 79.4216C13.4925 80.5925 14.4417 81.5417 15.6126 81.5417Z" fill="black"/>
<path d="M29.0669 81.5417C30.2378 81.5417 31.187 80.5925 31.187 79.4216C31.187 78.2507 30.2378 77.3015 29.0669 77.3015C27.896 77.3015 26.9468 78.2507 26.9468 79.4216C26.9468 80.5925 27.896 81.5417 29.0669 81.5417Z" fill="black"/>
<path d="M2.15818 65.6818C3.32907 65.6818 4.27826 64.7326 4.27826 63.5617C4.27826 62.3908 3.32907 61.4417 2.15818 61.4417C0.987289 61.4417 0.0381165 62.3908 0.0381165 63.5617C0.0381165 64.7326 0.987289 65.6818 2.15818 65.6818Z" fill="black"/>
<path d="M15.6126 65.6818C16.7834 65.6818 17.7326 64.7326 17.7326 63.5617C17.7326 62.3908 16.7834 61.4417 15.6126 61.4417C14.4417 61.4417 13.4925 62.3908 13.4925 63.5617C13.4925 64.7326 14.4417 65.6818 15.6126 65.6818Z" fill="black"/>
<path d="M29.0669 65.6818C30.2378 65.6818 31.187 64.7326 31.187 63.5617C31.187 62.3908 30.2378 61.4417 29.0669 61.4417C27.896 61.4417 26.9468 62.3908 26.9468 63.5617C26.9468 64.7326 27.896 65.6818 29.0669 65.6818Z" fill="black"/>
<path d="M2.15818 51.8197C3.32907 51.8197 4.27826 50.8706 4.27826 49.6997C4.27826 48.5288 3.32907 47.5796 2.15818 47.5796C0.987289 47.5796 0.0381165 48.5288 0.0381165 49.6997C0.0381165 50.8706 0.987289 51.8197 2.15818 51.8197Z" fill="black"/>
<path d="M15.6126 51.8197C16.7834 51.8197 17.7326 50.8706 17.7326 49.6997C17.7326 48.5288 16.7834 47.5796 15.6126 47.5796C14.4417 47.5796 13.4925 48.5288 13.4925 49.6997C13.4925 50.8706 14.4417 51.8197 15.6126 51.8197Z" fill="black"/>
<path d="M29.0669 51.8197C30.2378 51.8197 31.187 50.8706 31.187 49.6997C31.187 48.5288 30.2378 47.5796 29.0669 47.5796C27.896 47.5796 26.9468 48.5288 26.9468 49.6997C26.9468 50.8706 27.896 51.8197 29.0669 51.8197Z" fill="black"/>
<path d="M2.15815 127.542C3.32904 127.542 4.27823 126.592 4.27823 125.422C4.27823 124.251 3.32904 123.302 2.15815 123.302C0.987259 123.302 0.0380859 124.251 0.0380859 125.422C0.0380859 126.592 0.987259 127.542 2.15815 127.542Z" fill="black"/>
<path d="M15.6125 127.542C16.7834 127.542 17.7326 126.592 17.7326 125.422C17.7326 124.251 16.7834 123.302 15.6125 123.302C14.4416 123.302 13.4924 124.251 13.4924 125.422C13.4924 126.592 14.4416 127.542 15.6125 127.542Z" fill="black"/>
<path d="M29.0668 127.542C30.2377 127.542 31.1869 126.592 31.1869 125.422C31.1869 124.251 30.2377 123.302 29.0668 123.302C27.896 123.302 26.9468 124.251 26.9468 125.422C26.9468 126.592 27.896 127.542 29.0668 127.542Z" fill="black"/>
<path d="M2.15815 111.682C3.32904 111.682 4.27823 110.733 4.27823 109.562C4.27823 108.391 3.32904 107.442 2.15815 107.442C0.987259 107.442 0.0380859 108.391 0.0380859 109.562C0.0380859 110.733 0.987259 111.682 2.15815 111.682Z" fill="black"/>
<path d="M15.6125 111.682C16.7834 111.682 17.7326 110.733 17.7326 109.562C17.7326 108.391 16.7834 107.442 15.6125 107.442C14.4416 107.442 13.4924 108.391 13.4924 109.562C13.4924 110.733 14.4416 111.682 15.6125 111.682Z" fill="black"/>
<path d="M29.0668 111.682C30.2377 111.682 31.1869 110.733 31.1869 109.562C31.1869 108.391 30.2377 107.442 29.0668 107.442C27.896 107.442 26.9468 108.391 26.9468 109.562C26.9468 110.733 27.896 111.682 29.0668 111.682Z" fill="black"/>
<path d="M2.15815 97.8197C3.32904 97.8197 4.27823 96.8706 4.27823 95.6997C4.27823 94.5288 3.32904 93.5796 2.15815 93.5796C0.987259 93.5796 0.0380859 94.5288 0.0380859 95.6997C0.0380859 96.8706 0.987259 97.8197 2.15815 97.8197Z" fill="black"/>
<path d="M15.6125 97.8197C16.7834 97.8197 17.7326 96.8706 17.7326 95.6997C17.7326 94.5288 16.7834 93.5796 15.6125 93.5796C14.4416 93.5796 13.4924 94.5288 13.4924 95.6997C13.4924 96.8706 14.4416 97.8197 15.6125 97.8197Z" fill="black"/>
<path d="M29.0668 97.8197C30.2377 97.8197 31.1869 96.8706 31.1869 95.6997C31.1869 94.5288 30.2377 93.5796 29.0668 93.5796C27.896 93.5796 26.9468 94.5288 26.9468 95.6997C26.9468 96.8706 27.896 97.8197 29.0668 97.8197Z" fill="black"/>
<path d="M2.15818 35.96C3.32907 35.96 4.27826 35.0108 4.27826 33.8399C4.27826 32.669 3.32907 31.7198 2.15818 31.7198C0.987289 31.7198 0.0381165 32.669 0.0381165 33.8399C0.0381165 35.0108 0.987289 35.96 2.15818 35.96Z" fill="black"/>
<path d="M15.6126 35.96C16.7834 35.96 17.7326 35.0108 17.7326 33.8399C17.7326 32.669 16.7834 31.7198 15.6126 31.7198C14.4417 31.7198 13.4925 32.669 13.4925 33.8399C13.4925 35.0108 14.4417 35.96 15.6126 35.96Z" fill="black"/>
<path d="M29.0669 35.96C30.2378 35.96 31.187 35.0108 31.187 33.8399C31.187 32.669 30.2378 31.7198 29.0669 31.7198C27.896 31.7198 26.9468 32.669 26.9468 33.8399C26.9468 35.0108 27.896 35.96 29.0669 35.96Z" fill="black"/>
<path d="M2.15818 20.1C3.32907 20.1 4.27826 19.1508 4.27826 17.9799C4.27826 16.8091 3.32907 15.8599 2.15818 15.8599C0.987289 15.8599 0.0381165 16.8091 0.0381165 17.9799C0.0381165 19.1508 0.987289 20.1 2.15818 20.1Z" fill="black"/>
<path d="M15.6126 20.1C16.7834 20.1 17.7326 19.1508 17.7326 17.9799C17.7326 16.8091 16.7834 15.8599 15.6126 15.8599C14.4417 15.8599 13.4925 16.8091 13.4925 17.9799C13.4925 19.1508 14.4417 20.1 15.6126 20.1Z" fill="black"/>
<path d="M29.0669 20.1C30.2378 20.1 31.187 19.1508 31.187 17.9799C31.187 16.8091 30.2378 15.8599 29.0669 15.8599C27.896 15.8599 26.9468 16.8091 26.9468 17.9799C26.9468 19.1508 27.896 20.1 29.0669 20.1Z" fill="black"/>
<path d="M2.15818 4.24028C3.32907 4.24028 4.27826 3.29109 4.27826 2.1202C4.27826 0.949313 3.32907 0.00012207 2.15818 0.00012207C0.987289 0.00012207 0.0381165 0.949313 0.0381165 2.1202C0.0381165 3.29109 0.987289 4.24028 2.15818 4.24028Z" fill="black"/>
<path d="M15.6126 4.24022C16.7834 4.24022 17.7326 3.29103 17.7326 2.12014C17.7326 0.949252 16.7834 6.10352e-05 15.6126 6.10352e-05C14.4417 6.10352e-05 13.4925 0.949252 13.4925 2.12014C13.4925 3.29103 14.4417 4.24022 15.6126 4.24022Z" fill="black"/>
<path d="M29.0669 4.24022C30.2378 4.24022 31.187 3.29103 31.187 2.12014C31.187 0.949252 30.2378 6.10352e-05 29.0669 6.10352e-05C27.896 6.10352e-05 26.9468 0.949252 26.9468 2.12014C26.9468 3.29103 27.896 4.24022 29.0669 4.24022Z" fill="black"/>
</svg>
