<svg width="23" height="15" viewBox="0 0 23 15" fill="none" xmlns="http://www.w3.org/2000/svg">
<path d="M19.0852 8.48517C18.7134 8.01559 18.8197 7.80667 19.0852 7.38692C19.09 7.38213 22.1595 3.14055 22.4758 1.70209L22.4777 1.70113C22.6349 1.17692 22.4777 0.791672 21.7177 0.791672H19.2031C18.5629 0.791672 18.2677 1.1223 18.1096 1.49221C18.1096 1.49221 16.8293 4.55696 15.018 6.54359C14.4335 7.11763 14.1632 7.30163 13.8441 7.30163C13.6869 7.30163 13.4425 7.11763 13.4425 6.59342V1.70113C13.4425 1.07246 13.2633 0.791672 12.7334 0.791672H8.77928C8.37774 0.791672 8.13912 1.08492 8.13912 1.35805C8.13912 1.95413 9.04474 2.09117 9.13866 3.76826V7.40705C9.13866 8.20438 8.99395 8.35101 8.67291 8.35101C7.81808 8.35101 5.74328 5.2738 4.51374 1.75192C4.26553 1.06863 4.02308 0.79263 3.37812 0.79263H0.862492C0.144701 0.79263 -7.62939e-06 1.12325 -7.62939e-06 1.49317C-7.62939e-06 2.14676 0.854825 5.39646 3.97516 9.6898C6.05474 12.6204 8.98341 14.2083 11.6476 14.2083C13.249 14.2083 13.4445 13.8557 13.4445 13.249C13.4445 10.4488 13.2997 10.1843 14.1019 10.1843C14.4737 10.1843 15.1139 10.3683 16.6089 11.7818C18.3176 13.458 18.5984 14.2083 19.5548 14.2083H22.0695C22.7863 14.2083 23.1495 13.8557 22.9406 13.1599C22.4624 11.6965 19.2309 8.68642 19.0852 8.48517Z" fill="#EA6628"/>
</svg>
