<svg width="23" height="23" viewBox="0 0 23 23" fill="none" xmlns="http://www.w3.org/2000/svg">
<g clip-path="url(#clip0_3626_149)">
<path d="M19.0852 12.4852C18.7134 12.0157 18.8198 11.8067 19.0852 11.387C19.09 11.3822 22.1595 7.14062 22.4758 5.70216L22.4777 5.70121C22.6349 5.177 22.4777 4.79175 21.7178 4.79175H19.2031C18.5629 4.79175 18.2678 5.12237 18.1096 5.49229C18.1096 5.49229 16.8293 8.55704 15.018 10.5437C14.4335 11.1177 14.1632 11.3017 13.8441 11.3017C13.6869 11.3017 13.4425 11.1177 13.4425 10.5935V5.70121C13.4425 5.07254 13.2633 4.79175 12.7334 4.79175H8.77929C8.37775 4.79175 8.13913 5.085 8.13913 5.35812C8.13913 5.95421 9.04475 6.09125 9.13867 7.76833V11.4071C9.13867 12.2045 8.99396 12.3511 8.67292 12.3511C7.81808 12.3511 5.74329 9.27387 4.51375 5.752C4.26554 5.06871 4.02308 4.79271 3.37813 4.79271H0.8625C0.144708 4.79271 0 5.12333 0 5.49325C0 6.14683 0.854833 9.39654 3.97517 13.6899C6.05475 16.6205 8.98342 18.2084 11.6476 18.2084C13.249 18.2084 13.4445 17.8557 13.4445 17.2491C13.4445 14.4489 13.2998 14.1844 14.1019 14.1844C14.4737 14.1844 15.1139 14.3684 16.6089 15.7819C18.3176 17.458 18.5984 18.2084 19.5548 18.2084H22.0695C22.7863 18.2084 23.1495 17.8557 22.9406 17.16C22.4624 15.6966 19.2309 12.6865 19.0852 12.4852V12.4852Z" fill="#4C858B"/>
</g>
<defs>
<clipPath id="clip0_3626_149">
<rect width="23" height="23" fill="white"/>
</clipPath>
</defs>
</svg>
